<svg width="76" height="25" viewBox="0 0 76 25" fill="none" xmlns="http://www.w3.org/2000/svg">
<g clip-path="url(#clip0)">
<path d="M49.9968 1.63427L47.3736 1.65268L47.5229 22.9254L50.1461 22.907L49.9968 1.63427Z" fill="#214E41"/>
<path d="M56.6839 1.58735L54.0606 1.60575L54.2099 22.8784L56.8331 22.86L56.6839 1.58735Z" fill="#214E41"/>
<path d="M74.3854 8.38845L73.0938 11.2542C71.8753 9.20681 69.7599 8.05301 67.2872 8.07036C62.8579 8.10144 59.8713 11.4985 59.9005 15.6535C59.9296 19.8085 62.9636 23.1633 67.3929 23.1322C69.7366 23.1158 71.7504 22.0412 72.9629 20.1715L72.981 22.7467L75.7547 22.7273L75.654 8.37955L74.3854 8.38845ZM67.7907 21.5929C64.6729 21.6147 62.9349 19.0732 62.9107 15.6324C62.886 12.1049 64.5888 9.62585 67.7066 9.60397C70.5663 9.58391 72.7126 12.0793 72.737 15.5634C72.7615 19.0475 70.6504 21.5728 67.7907 21.5929Z" fill="#214E41"/>
<path d="M23.7783 9.8906C22.9454 10.6972 22.3073 11.6972 21.9495 12.8034L20.5663 8.74449L19.2977 8.75339L19.3984 23.1011L22.1721 23.0816L22.1339 17.6282C22.1201 15.6589 22.3235 14.0127 23.1109 12.8385C23.792 11.8382 24.9703 11.224 26.4539 11.2136C26.927 11.2103 27.4003 11.2502 27.874 11.3335L27.8547 8.58513C27.5748 8.54381 27.2952 8.52413 27.0157 8.5261C25.8117 8.55619 24.654 9.04043 23.7783 9.8906Z" fill="#214E41"/>
<path d="M36.3892 8.28719C31.9383 8.31842 28.8004 11.5867 28.8304 15.8715C28.8605 20.1564 31.9795 23.3807 36.4734 23.3492C38.1507 23.3591 39.8028 22.8497 41.1938 21.8877C42.3486 20.9923 43.1784 19.7313 43.5554 18.3003L40.6957 18.3203C40.2784 20.1412 39.172 21.8153 36.6563 21.833C33.1085 21.8579 31.9493 19.0742 31.8638 16.0883L31.8635 16.045L43.8615 15.9608C43.8605 15.8093 43.8597 15.7011 43.8591 15.6146C43.8505 11.3296 40.7971 8.25626 36.3892 8.28719ZM36.4213 9.80188C39.5606 9.77985 40.5677 12.3481 40.6683 14.425L31.9386 14.4863C32.1789 11.9525 33.4541 9.8227 36.4213 9.80188Z" fill="#214E41"/>
<path d="M10.144 12.7348C12.9566 12.1307 15.1176 10.6006 15.0991 7.96047C15.0763 4.71438 12.6357 3.17331 8.8944 3.19957L0.616219 3.25766L0.756693 23.2752L9.91644 23.2109C13.2922 23.1872 15.9463 21.4373 15.9206 17.78C15.8994 14.7503 13.3492 12.9287 10.144 12.7348ZM7.9585 4.65613C10.6462 4.63726 12.0534 5.99081 12.0684 8.13323C12.0835 10.2756 10.5685 11.9527 7.77331 11.9723L3.77398 12.0004L3.72265 4.68585L7.9585 4.65613ZM8.44385 21.728L3.84247 21.7603L3.78567 13.6667L7.91401 13.6377C10.8598 13.617 12.6976 15.0541 12.716 17.6727C12.7321 19.9666 11.2176 21.7085 8.44385 21.728Z" fill="#214E41"/>
</g>
<defs>
<clipPath id="clip0">
<rect width="75" height="24" fill="white" transform="translate(0.598904 0.790634) rotate(-0.402069)"/>
</clipPath>
</defs>
</svg>
